<svg viewBox="0 0 128 128" xmlns="http://www.w3.org/2000/svg" fill-rule="evenodd"><path d="M101.92 12.92L114.85 0 128 13.15l-12.96 12.96A63.46 63.46 0 0 1 127.53 64a63.8 63.8 0 0 1-63.77 63.77 63.46 63.46 0 0 1-37.89-12.5L13.15 128 0 114.85l12.69-12.69A63.46 63.46 0 0 1 0 64 63.8 63.8 0 0 1 63.76.23c14.31 0 27.52 4.73 38.16 12.7zm-38.16 4.75A46.35 46.35 0 0 1 110.1 64a46.35 46.35 0 0 1-46.33 46.33A46.35 46.35 0 0 1 17.44 64a46.35 46.35 0 0 1 46.32-46.33z"/><path d="M42.34 83.02h-5.3c-2.5 0-4.5-.64-5.99-1.92-1.49-1.28-2.23-3.16-2.23-5.63v-2.88c0-2.31-.51-3.93-1.53-4.83-1.02-.9-2.67-1.36-4.94-1.36H21v-4.8h1.35c2.27 0 3.92-.46 4.94-1.36 1.02-.9 1.53-2.52 1.53-4.83v-2.88c0-2.47.74-4.35 2.23-5.63 1.5-1.28 3.49-1.92 5.99-1.92h5.3v4.37h-2.2c-.78 0-1.48.06-2.1.18-.63.11-1.16.34-1.58.66-.44.34-.77.83-.99 1.48a7.86 7.86 0 0 0-.33 2.49v2.12c0 1.83-.5 3.35-1.52 4.57a10.2 10.2 0 0 1-4.32 2.92v.46a10.2 10.2 0 0 1 4.32 2.91 6.93 6.93 0 0 1 1.52 4.57v2.13c0 1.02.11 1.85.33 2.5a3.04 3.04 0 0 0 2.55 2.14c.64.11 1.34.17 2.11.17h2.21v4.37zM47.79 67.69h7.24v7.68h-7.24z"/><path d="M80.8 59.04l-2.14 3.22-6.2-4.26.22 6.94h-4.12l.15-6.76-6.07 4.1-2.11-3.24 6.87-4.08-6.85-4.12 2.09-3.27 6.05 4.16-.13-6.75h4.1l-.15 6.77 6.13-4.12 2.15 3.24-6.93 4.07 6.95 4.1z" fill-rule="nonzero"/><path d="M108 66.4h-1.35c-2.27 0-3.92.45-4.94 1.36-1.02.9-1.53 2.52-1.53 4.83v2.88c0 2.47-.74 4.35-2.23 5.63-1.5 1.28-3.49 1.92-5.99 1.92h-5.3v-4.37h2.2c.78 0 1.48-.06 2.1-.18a3.68 3.68 0 0 0 1.58-.66c.44-.34.77-.83.99-1.48.22-.64.33-1.47.33-2.49v-2.12c0-1.83.5-3.35 1.52-4.57a10.2 10.2 0 0 1 4.32-2.92v-.46a10.2 10.2 0 0 1-4.32-2.91 6.93 6.93 0 0 1-1.52-4.57v-2.13c0-1.02-.11-1.85-.33-2.5a3.04 3.04 0 0 0-.99-1.47 3.68 3.68 0 0 0-1.58-.66c-.62-.12-1.32-.18-2.1-.18h-2.2v-4.37h5.3c2.5 0 4.5.64 5.99 1.92 1.49 1.28 2.23 3.16 2.23 5.64v2.87c0 2.31.51 3.93 1.53 4.83 1.02.9 2.67 1.36 4.94 1.36H108v4.8z"/></svg>
